<svg width="835" height="358" viewBox="0 0 835 358" fill="none" xmlns="http://www.w3.org/2000/svg">
<path d="M237.348 247V240.2H237.548C239.815 240.2 241.815 240.067 243.548 239.8C245.415 239.533 246.882 238.933 247.948 238C249.015 237.067 249.548 235.8 249.548 234.2V157.4C249.548 155.8 249.215 154.6 248.548 153.8C247.882 152.867 246.748 152.133 245.148 151.6C243.682 151.067 241.815 150.6 239.548 150.2L237.348 149.8V143H277.948V164.4L279.948 165.4V238.4C279.948 238.8 280.482 239.133 281.548 239.4C282.615 239.667 283.948 239.867 285.548 240C287.282 240.133 289.015 240.2 290.748 240.2H290.948V247H237.348ZM359.348 247H305.948V240.2H306.148C307.615 240.2 309.215 240.133 310.948 240C312.682 239.867 314.148 239.667 315.348 239.4C316.548 239.133 317.148 238.8 317.148 238.4V172.4C317.148 167.867 316.615 164.2 315.548 161.4C314.615 158.6 313.148 156.6 311.148 155.4C309.282 154.067 306.748 153.4 303.548 153.4C299.815 153.4 296.348 154.333 293.148 156.2C290.082 157.933 287.215 160.467 284.548 163.8C282.015 167 279.548 170.933 277.148 175.6L274.148 168.4C277.215 162.667 280.682 157.8 284.548 153.8C288.415 149.667 292.815 146.533 297.748 144.4C302.682 142.133 308.282 141 314.548 141C321.215 141 327.015 142.267 331.948 144.8C336.882 147.333 340.682 151.133 343.348 156.2C346.015 161.133 347.348 167.333 347.348 174.8V234.2C347.348 235.8 347.882 237.067 348.948 238C350.015 238.933 351.415 239.533 353.148 239.8C354.882 240.067 356.882 240.2 359.148 240.2H359.348V247ZM364.617 150.6V143.6H365.217C368.817 143.6 371.817 143.267 374.217 142.6C376.751 141.8 378.684 140.533 380.017 138.8C381.484 136.933 382.417 134.467 382.817 131.4L389.217 143H433.417V150.6H364.617ZM408.617 220C408.617 225.067 409.217 229.067 410.417 232C411.617 234.933 413.284 237 415.417 238.2C417.684 239.4 420.284 240 423.217 240C426.151 240 428.684 239.6 430.817 238.8C433.084 238 434.551 237.533 435.217 237.4V245.4C434.151 245.933 432.617 246.467 430.617 247C428.751 247.667 426.551 248.133 424.017 248.4C421.484 248.8 418.751 249 415.817 249C408.617 249 402.151 247.933 396.417 245.8C390.817 243.667 386.417 240.2 383.217 235.4C380.017 230.467 378.417 224 378.417 216V144.2L381.617 142.8L384.417 116.4H408.617V220ZM512.798 185.2L512.598 192.4C507.132 192.933 502.265 193.733 497.998 194.8C493.732 195.733 490.065 197 486.998 198.6C483.932 200.067 481.332 201.8 479.198 203.8C477.198 205.8 475.665 208.2 474.598 211C473.665 213.667 473.198 216.667 473.198 220C473.198 224 473.798 227.333 474.998 230C476.198 232.667 477.865 234.667 479.998 236C482.265 237.2 484.798 237.8 487.598 237.8C491.198 237.8 494.398 237 497.198 235.4C499.998 233.667 502.465 231.267 504.598 228.2C506.865 225.133 508.798 221.667 510.398 217.8L513.998 221C512.265 226.6 509.732 231.533 506.398 235.8C503.065 240.067 498.998 243.333 494.198 245.6C489.398 247.867 483.732 249 477.198 249C470.798 249 465.198 247.933 460.398 245.8C455.598 243.667 451.798 240.6 448.998 236.6C446.332 232.467 444.998 227.467 444.998 221.6C444.998 216 446.465 211.2 449.398 207.2C452.332 203.2 456.598 199.8 462.198 197C467.932 194.2 474.998 191.867 483.398 190C491.932 188.133 501.732 186.533 512.798 185.2ZM509.598 247V227.8L507.598 228.4V168.8C507.598 164 506.998 160.133 505.798 157.2C504.598 154.267 502.665 152.133 499.998 150.8C497.465 149.467 494.198 148.8 490.198 148.8C484.732 148.8 480.065 149.933 476.198 152.2C472.332 154.333 469.332 157.067 467.198 160.4C467.465 158.533 467.798 156.933 468.198 155.6C468.598 154.133 469.132 152.933 469.798 152C470.598 151.067 471.465 150.333 472.398 149.8C473.332 149.133 474.332 148.667 475.398 148.4V173.6H452.198V153.2C454.065 151.733 456.865 150.067 460.598 148.2C464.332 146.333 468.932 144.667 474.398 143.2C479.998 141.733 486.398 141 493.598 141C500.265 141 506.265 141.667 511.598 143C516.932 144.333 521.532 146.4 525.398 149.2C529.265 152 532.198 155.6 534.198 160C536.332 164.267 537.398 169.4 537.398 175.4V233.8C537.398 235.4 537.865 236.667 538.798 237.6C539.732 238.4 540.998 239 542.598 239.4C544.198 239.667 546.132 239.867 548.398 240L549.198 240.2V247H509.598ZM577.666 248.4C572.999 248.4 569.266 247.067 566.466 244.4C563.799 241.733 562.466 238.267 562.466 234C562.466 229.733 563.799 226.333 566.466 223.8C569.266 221.133 572.999 219.8 577.666 219.8C582.332 219.8 585.999 221.133 588.666 223.8C591.332 226.333 592.666 229.733 592.666 234C592.666 238.267 591.332 241.733 588.666 244.4C585.999 247.067 582.332 248.4 577.666 248.4Z" fill="white"/>
</svg>
